<?xml version="1.0" encoding="UTF-8"?>
<svg version="1.1" xmlns="http://www.w3.org/2000/svg" width="200" height="200">
<path d="M0 0 C0.66 0 1.32 0 2 0 C2.77209283 2.14538048 3.54260414 4.29133013 4.3125 6.4375 C4.54106689 7.07260498 4.76963379 7.70770996 5.00512695 8.36206055 C6.30528901 11.99212036 7.53274577 15.63395304 8.6875 19.3125 C9.541486 23.05935986 9.541486 23.05935986 12 24 C12.859375 25.71484375 12.859375 25.71484375 13.75 27.9375 C16.31353188 33.95119885 19.33931271 40.33931271 24 45 C24.92993078 46.26733929 25.82300313 47.56215374 26.6875 48.875 C27.37392578 49.89207031 27.37392578 49.89207031 28.07421875 50.9296875 C29 53 29 53 28.84765625 54.8125 C27.88502369 57.29671306 26.80003413 59.71387878 25.67602539 62.12890625 C21.30907242 71.5420904 18.59060532 80.95159147 16 91 C2.14 90.505 2.14 90.505 -12 90 C-16.36885246 79.07786885 -16.36885246 79.07786885 -17.875 73.5625 C-19.5148287 67.98444814 -21.83409684 63.34826265 -24.92578125 58.4375 C-26.23948455 55.45658779 -25.96476648 54.06364676 -25 51 C-23.9375 48.6875 -23.9375 48.6875 -23 47 C-22.34 47 -21.68 47 -21 47 C-20.77183594 46.35546875 -20.54367188 45.7109375 -20.30859375 45.046875 C-18.19494608 40.12554611 -15.41308296 35.56977859 -12.72070312 30.9453125 C-10.14867546 26.4222236 -8.15229307 22.03866201 -6.63085938 17.05859375 C-4.86246078 11.28802993 -2.69865724 5.39731449 0 0 Z M0 38 C0 41.63 0 45.26 0 49 C0.33 49 0.66 49 1 49 C1 45.37 1 41.74 1 38 C0.67 38 0.34 38 0 38 Z M-4 53 C-4.91778291 55.92334973 -4.91778291 55.92334973 -5 59 C-3.35509414 62.01785339 -3.35509414 62.01785339 -1.1875 62.875 C1.97919279 63.05595387 3.51510779 61.88045897 6 60 C7.25192192 57.09087594 7.25192192 57.09087594 6.4375 54.375 C5.17468293 51.701025 5.17468293 51.701025 2.0625 51.0625 C-1.17601934 50.70455159 -1.17601934 50.70455159 -4 53 Z " fill="#374DC5" transform="translate(98,37)"/>
<path d="M0 0 C-0.559505 5.19096306 -3.09705822 9.23066791 -5.625 13.6875 C-6.07141846 14.48752441 -6.51783691 15.28754883 -6.9777832 16.11181641 C-9.95308064 21.37125059 -13.15480348 26.31462831 -16.91796875 31.0546875 C-18.21908215 32.9157695 -18.21908215 32.9157695 -17.67431641 34.90478516 C-16.36714774 38.96637875 -14.14957992 42.69497202 -12.14648438 46.453125 C-11.03232083 48.61037975 -10.00065242 50.7877406 -9 53 C-8.62866943 53.81903809 -8.25733887 54.63807617 -7.87475586 55.48193359 C-4.34805327 64.44818038 -4.3145258 73.3833054 -4.21606445 82.88525391 C-4.18719114 85.65462418 -4.13199192 88.42254414 -4.07226562 91.19140625 C-4.04017253 92.95309841 -4.00951943 94.71481754 -3.98046875 96.4765625 C-3.9659819 97.30354645 -3.95149506 98.1305304 -3.93656921 98.98257446 C-3.88204677 104.76409353 -3.88204677 104.76409353 -5 107 C-18.86 106.505 -18.86 106.505 -33 106 C-34.14976406 103.70047187 -34.1257092 102.41281185 -34.12698364 99.85594177 C-34.12980347 98.98797974 -34.13262329 98.1200177 -34.13552856 97.22575378 C-34.13350433 96.27138931 -34.1314801 95.31702484 -34.12939453 94.33374023 C-34.13114685 93.33043671 -34.13289917 92.32713318 -34.13470459 91.29342651 C-34.13911888 87.96513152 -34.1361868 84.63688932 -34.1328125 81.30859375 C-34.13348561 79.00456227 -34.13445569 76.70053087 -34.13571167 74.39649963 C-34.13718803 69.56356125 -34.13503587 64.73064132 -34.13037109 59.89770508 C-34.12467066 53.68748985 -34.12795521 47.4773178 -34.13394356 41.26710415 C-34.13754812 36.50864839 -34.13641112 31.75020296 -34.13381577 26.9917469 C-34.13314637 24.70109108 -34.13397535 22.41043433 -34.13629532 20.11977959 C-34.13882047 16.92544934 -34.13498334 13.73119016 -34.12939453 10.53686523 C-34.13141876 9.58047653 -34.13344299 8.62408783 -34.13552856 7.63871765 C-34.13270874 6.77357544 -34.12988892 5.90843323 -34.12698364 5.01707458 C-34.12660662 4.2610366 -34.12622959 3.50499861 -34.12584114 2.72605038 C-34 1 -34 1 -33 0 C-30.8186644 -0.17110736 -28.63201696 -0.27523225 -26.4453125 -0.3515625 C-25.45928543 -0.38629166 -25.45928543 -0.38629166 -24.45333862 -0.42172241 C-23.05963014 -0.46942371 -21.66583513 -0.51465018 -20.27197266 -0.55761719 C-18.14061383 -0.62450996 -16.00985014 -0.70234442 -13.87890625 -0.78125 C-12.52606357 -0.82618516 -11.17319934 -0.87047699 -9.8203125 -0.9140625 C-8.58555176 -0.9548291 -7.35079102 -0.9955957 -6.07861328 -1.03759766 C-3 -1 -3 -1 0 0 Z " fill="#374EC5" transform="translate(88,57)"/>
<path d="M0 0 C9.0548547 3.12778104 16.23166924 9.07183804 20.6640625 17.60546875 C24.64629662 26.27851958 25.200895 37.24999316 22.3515625 46.35546875 C18.41772181 56.1539802 10.80948886 63.07745539 1.5234375 67.859375 C-1.01843055 68.51550761 -2.8885601 68.00890235 -5.3984375 67.35546875 C-3.60488944 59.95231292 -1.66702577 52.62782264 0.6015625 45.35546875 C1.2615625 45.35546875 1.9215625 45.35546875 2.6015625 45.35546875 C2.7046875 44.63359375 2.8078125 43.91171875 2.9140625 43.16796875 C3.6015625 40.35546875 3.6015625 40.35546875 5.1640625 37.91796875 C6.88377655 34.85239152 6.84298971 32.81592543 6.6015625 29.35546875 C5.9415625 29.35546875 5.2815625 29.35546875 4.6015625 29.35546875 C4.3334375 28.85660156 4.0653125 28.35773438 3.7890625 27.84375 C1.18072569 23.06465919 -1.57993181 18.41334797 -4.4609375 13.79296875 C-7.38849771 9.07788123 -10.03623345 4.37515235 -12.3984375 -0.64453125 C-8.52888179 -2.5793091 -4.01308575 -1.0784351 0 0 Z " fill="#374EC4" transform="translate(121.3984375,58.64453125)"/>
<path d="M0 0 C0.66 0 1.32 0 2 0 C6.47732185 4.77054695 9.83173872 10.22896949 12.8671875 15.98828125 C14.31094102 18.55218836 16.14079127 20.72763378 18 23 C18 23.66 18 24.32 18 25 C18.99 24.67 19.98 24.34 21 24 C19.52232949 30.64951729 16.37863948 36.1245672 13 42 C10.109375 41.671875 10.109375 41.671875 7 41 C5.25 38.25 5.25 38.25 4 35 C3.608125 34.13375 3.21625 33.2675 2.8125 32.375 C2 30 2 30 2 26 C1.34 26 0.68 26 0 26 C-0.33 26.66 -0.66 27.32 -1 28 C-1.309375 27.195625 -1.61875 26.39125 -1.9375 25.5625 C-2.76335345 23.10919595 -2.76335345 23.10919595 -4 22 C-3.98811788 19.23146538 -3.90062614 16.51147915 -3.75 13.75 C-3.72292969 12.98558594 -3.69585937 12.22117187 -3.66796875 11.43359375 C-3.42523697 6.89999056 -2.95828994 3.66124992 0 0 Z " fill="#384DC5" transform="translate(105,64)"/>
<path d="M0 0 C1.32 0 2.64 0 4 0 C4.33 1.98 4.66 3.96 5 6 C5.99 6 6.98 6 8 6 C8 9.63 8 13.26 8 17 C7.34 17 6.68 17 6 17 C5.82984375 17.58007812 5.6596875 18.16015625 5.484375 18.7578125 C2.76787601 27.51418689 -1.5040215 34.46312602 -9.5625 39.25 C-12.16209465 40.57343 -14.15855785 41.54536926 -17 42 C-18.5735209 38.85295819 -17.21258392 36.55626651 -16.25 33.25 C-15.90453125 32.03828125 -15.5590625 30.8265625 -15.203125 29.578125 C-14.06018084 26.1789794 -12.66120983 23.17099571 -11 20 C-10.46570796 18.75569321 -9.9419154 17.50671495 -9.4375 16.25 C-8 13 -8 13 -6 11 C-5.83312552 8.41645782 -5.83312552 8.41645782 -6 6 C-4.68 5.34 -3.36 4.68 -2 4 C-1.67 5.32 -1.34 6.64 -1 8 C-1.020625 7.05125 -1.04125 6.1025 -1.0625 5.125 C-1 2 -1 2 0 0 Z " fill="#384EC4" transform="translate(137,82)"/>
<path d="M0 0 C-0.57634139 4.75481646 -2.55068521 7.97048212 -5 12 C-6 9 -6 9 -4.5625 5.8125 C-4.046875 4.884375 -3.53125 3.95625 -3 3 C-11.86002257 0.04665914 -21.66071618 2 -31 2 C-31 35.66 -31 69.32 -31 104 C-23.41 103.67 -15.82 103.34 -8 103 C-6.11700776 74.56407388 -6.11700776 74.56407388 -14.59765625 47.83203125 C-16.02783217 44.94379297 -17.04782627 42.07520222 -18 39 C-18.66 39 -19.32 39 -20 39 C-20 37.35 -20 35.7 -20 34 C-16.89644775 37.64122907 -14.64006696 41.28722986 -12.5 45.5625 C-11.9328125 46.67753906 -11.365625 47.79257813 -10.78125 48.94140625 C-10.17502446 50.28872664 -9.58245281 51.64223332 -9 53 C-8.64333252 53.79696289 -8.28666504 54.59392578 -7.91918945 55.41503906 C-4.37197823 64.4228685 -4.31499111 73.33840131 -4.21606445 82.88525391 C-4.18719114 85.65462418 -4.13199192 88.42254414 -4.07226562 91.19140625 C-4.04017253 92.95309841 -4.00951943 94.71481754 -3.98046875 96.4765625 C-3.9659819 97.30354645 -3.95149506 98.1305304 -3.93656921 98.98257446 C-3.88204677 104.76409353 -3.88204677 104.76409353 -5 107 C-18.86 106.505 -18.86 106.505 -33 106 C-34.14976406 103.70047187 -34.1257092 102.41281185 -34.12698364 99.85594177 C-34.12980347 98.98797974 -34.13262329 98.1200177 -34.13552856 97.22575378 C-34.13350433 96.27138931 -34.1314801 95.31702484 -34.12939453 94.33374023 C-34.13114685 93.33043671 -34.13289917 92.32713318 -34.13470459 91.29342651 C-34.13911888 87.96513152 -34.1361868 84.63688932 -34.1328125 81.30859375 C-34.13348561 79.00456227 -34.13445569 76.70053087 -34.13571167 74.39649963 C-34.13718803 69.56356125 -34.13503587 64.73064132 -34.13037109 59.89770508 C-34.12467066 53.68748985 -34.12795521 47.4773178 -34.13394356 41.26710415 C-34.13754812 36.50864839 -34.13641112 31.75020296 -34.13381577 26.9917469 C-34.13314637 24.70109108 -34.13397535 22.41043433 -34.13629532 20.11977959 C-34.13882047 16.92544934 -34.13498334 13.73119016 -34.12939453 10.53686523 C-34.13141876 9.58047653 -34.13344299 8.62408783 -34.13552856 7.63871765 C-34.13270874 6.77357544 -34.12988892 5.90843323 -34.12698364 5.01707458 C-34.12660662 4.2610366 -34.12622959 3.50499861 -34.12584114 2.72605038 C-34 1 -34 1 -33 0 C-30.8186644 -0.17110736 -28.63201696 -0.27523225 -26.4453125 -0.3515625 C-25.45928543 -0.38629166 -25.45928543 -0.38629166 -24.45333862 -0.42172241 C-23.05963014 -0.46942371 -21.66583513 -0.51465018 -20.27197266 -0.55761719 C-18.14061383 -0.62450996 -16.00985014 -0.70234442 -13.87890625 -0.78125 C-12.52606357 -0.82618516 -11.17319934 -0.87047699 -9.8203125 -0.9140625 C-8.58555176 -0.9548291 -7.35079102 -0.9955957 -6.07861328 -1.03759766 C-3 -1 -3 -1 0 0 Z " fill="#384695" transform="translate(88,57)"/>
<path d="M0 0 C0.66 0 1.32 0 2 0 C2.77209283 2.14538048 3.54260414 4.29133013 4.3125 6.4375 C4.54106689 7.07260498 4.76963379 7.70770996 5.00512695 8.36206055 C6.30528901 11.99212036 7.53274577 15.63395304 8.6875 19.3125 C9.541486 23.05935986 9.541486 23.05935986 12 24 C12.859375 25.71484375 12.859375 25.71484375 13.75 27.9375 C16.31353188 33.95119885 19.33931271 40.33931271 24 45 C27 49.61538462 27 49.61538462 27 52 C26.34 52 25.68 52 25 52 C24.01732519 50.61070113 23.0452904 49.21229075 22.13671875 47.7734375 C20.9882713 45.98170162 19.76052722 44.27681703 18.5 42.5625 C12 33.50677245 12 33.50677245 12 30 C11.01 29.67 10.02 29.34 9 29 C9 28.34 9 27.68 9 27 C6.32729899 28.33635051 6.04919709 29.19028576 5 32 C4.65083184 34.86092625 4.40104763 37.63009508 4.25 40.5 C4.19457031 41.25925781 4.13914062 42.01851562 4.08203125 42.80078125 C3.85545959 46.72115746 3.71280057 49.69235775 6 53 C4.3603125 52.7215625 4.3603125 52.7215625 2.6875 52.4375 C-0.93624133 51.7421932 -0.93624133 51.7421932 -4 53 C-4 52.01 -4 51.02 -4 50 C-3.34 50 -2.68 50 -2 50 C-1.67 46.7 -1.34 43.4 -1 40 C-0.67 40 -0.34 40 0 40 C0.33 38.35 0.66 36.7 1 35 C0.34 35 -0.32 35 -1 35 C-1 30.38 -1 25.76 -1 21 C-2.98 21 -4.96 21 -7 21 C-6.46932049 15.79934084 -5.19172345 11.73412264 -3 7 C-2.62875 6.071875 -2.2575 5.14375 -1.875 4.1875 C-1 2 -1 2 0 0 Z " fill="#344AB5" transform="translate(98,37)"/>
<path d="M0 0 C0.66 0 1.32 0 2 0 C0.86301143 4.4604936 -0.33189076 8.22017858 -3 12 C-3.99 12.495 -3.99 12.495 -5 13 C-6.01351664 14.65848177 -7.01120795 16.32665961 -8 18 C-8.7425 18.845625 -9.485 19.69125 -10.25 20.5625 C-12.19901437 22.75416127 -12.19901437 22.75416127 -11.9375 24.875 C-11.628125 25.57625 -11.31875 26.2775 -11 27 C-10.38125 28.546875 -10.38125 28.546875 -9.75 30.125 C-8.46794717 33.07874916 -7.00078996 35.90211544 -5.5 38.75 C-2.25642734 45.15875081 0 51.78135323 0 59 C8.58 59 17.16 59 26 59 C26.33 56.36 26.66 53.72 27 51 C28.76797591 41.1811586 33.38932298 32.72852633 38 24 C38.66 24 39.32 24 40 24 C39.37440024 27.27616718 38.07777625 30.11712643 36.67602539 33.12890625 C32.30907242 42.5420904 29.59060532 51.95159147 27 62 C13.14 61.505 13.14 61.505 -1 61 C-5.36885246 50.07786885 -5.36885246 50.07786885 -6.875 44.5625 C-8.5148287 38.98444814 -10.83409684 34.34826265 -13.92578125 29.4375 C-15.23948455 26.45658779 -14.96476648 25.06364676 -14 22 C-12.9375 19.6875 -12.9375 19.6875 -12 18 C-11.34 18 -10.68 18 -10 18 C-9.7525 17.31550781 -9.505 16.63101563 -9.25 15.92578125 C-7.78290648 12.49186549 -5.95200695 9.3595113 -4 6.1875 C-3.46632813 5.2912793 -3.46632813 5.2912793 -2.921875 4.37695312 C-2.00555558 2.88109586 -1.00864753 1.43522138 0 0 Z " fill="#2F4498" transform="translate(87,66)"/>
<path d="M0 0 C3.90593434 1.30197811 4.41410218 2.88935496 6.5 6.375 C8.80024793 10.28015326 8.80024793 10.28015326 11.73828125 13.68359375 C12.15464844 14.11800781 12.57101563 14.55242187 13 15 C12.6875 17.6875 12.6875 17.6875 12 20 C11.34 20 10.68 20 10 20 C9.6596875 21.36125 9.6596875 21.36125 9.3125 22.75 C8.32399856 26.26309147 6.95079228 29.52833461 5.5 32.875 C3.3543246 37.9005642 1.98402885 42.63256991 1 48 C6.74343333 46.71065782 10.42223326 44.73695244 15 41 C15 40.34 15 39.68 15 39 C15.99 38.34 16.98 37.68 18 37 C20.68591361 32.48766513 21.86354605 28.07033299 23 23 C23.99 23.66 24.98 24.32 26 25 C22.62596213 36.50240181 16.42487211 44.71962493 5.75 50.5625 C2.51220813 52.22982445 0.49226038 51.90919193 -3 51 C-1.20645194 43.59684417 0.73141173 36.27235389 3 29 C3.66 29 4.32 29 5 29 C5.103125 28.278125 5.20625 27.55625 5.3125 26.8125 C6 24 6 24 7.5625 21.5625 C9.28221405 18.49692277 9.24142721 16.46045668 9 13 C8.34 13 7.68 13 7 13 C6.20724852 11.5839401 5.41584688 10.16712447 4.625 8.75 C3.96371094 7.56664063 3.96371094 7.56664063 3.2890625 6.359375 C2.14252177 4.26085803 1.05350448 2.1463923 0 0 Z " fill="#2D418F" transform="translate(119,75)"/>
<path d="M0 0 C0.66 0 1.32 0 2 0 C2.7945261 2.18646304 3.5854858 4.37422221 4.375 6.5625 C4.81585938 7.78066406 5.25671875 8.99882813 5.7109375 10.25390625 C6.92984018 13.7961113 7.9708791 17.39807683 9 21 C3.72 21 -1.56 21 -7 21 C-6.18433322 15.29033257 -5.33208976 12.03731388 -3 7 C-2.62875 6.071875 -2.2575 5.14375 -1.875 4.1875 C-1 2 -1 2 0 0 Z " fill="#181752" transform="translate(98,37)"/>
<path d="M0 0 C3.94727588 -0.17942163 6.5980513 -0.09350689 10 2 C10.33 1.34 10.66 0.68 11 0 C11.33 0.99 11.66 1.98 12 3 C12.66 3.33 13.32 3.66 14 4 C14 4.66 14 5.32 14 6 C15.32 6.33 16.64 6.66 18 7 C17.34 8.32 16.68 9.64 16 11 C14.68 10.67 13.36 10.34 12 10 C11.34 11.32 10.68 12.64 10 14 C2.8963235 11.43525219 2.8963235 11.43525219 0.765625 8.0234375 C-0.0625 5.875 -0.0625 5.875 -1 2 C-0.67 1.34 -0.34 0.68 0 0 Z " fill="#384EC3" transform="translate(116,61)"/>
<path d="M0 0 C0.33 0 0.66 0 1 0 C1 49.17 1 98.34 1 149 C0.67 149 0.34 149 0 149 C0 99.83 0 50.66 0 0 Z " fill="#08070A" transform="translate(191,51)"/>
<path d="M0 0 C3.10355225 3.64122907 5.35993304 7.28722986 7.5 11.5625 C8.35078125 13.23505859 8.35078125 13.23505859 9.21875 14.94140625 C13.72636783 24.83259034 15.59731954 33.4323936 15.3125 44.3125 C15.30283203 45.43978516 15.29316406 46.56707031 15.28320312 47.72851562 C15.20869518 53.23886416 14.96344995 58.57178201 14 64 C13.67 64 13.34 64 13 64 C13.01571045 63.3922876 13.0314209 62.7845752 13.04760742 62.15844727 C13.42947386 45.05179737 13.387922 29.33583839 5.40234375 13.83203125 C3.97216783 10.94379297 2.95217373 8.07520222 2 5 C1.34 5 0.68 5 0 5 C0 3.35 0 1.7 0 0 Z " fill="#31429C" transform="translate(68,91)"/>
<path d="M0 0 C2.43253045 0.86256708 4.66671881 1.88196943 7 3 C7 3.66 7 4.32 7 5 C4.03 4.67 1.06 4.34 -2 4 C-2 7.01490557 -1.48047265 8.86864114 -0.5 11.6875 C-0.2215625 12.49574219 0.056875 13.30398437 0.34375 14.13671875 C0.5603125 14.75160156 0.776875 15.36648437 1 16 C0.34 16.33 -0.32 16.66 -1 17 C-2.12931621 15.10673459 -3.25327616 13.2102736 -4.375 11.3125 C-5.00148438 10.25675781 -5.62796875 9.20101562 -6.2734375 8.11328125 C-7.75442713 5.442809 -8.94913815 2.86067949 -10 0 C-6.75112699 -1.6244365 -3.43596258 -0.7217372 0 0 Z " fill="#293D73" transform="translate(119,58)"/>
<path d="M0 0 C7.82387604 5.42111208 13.86577364 10.76228021 17 20 C17.4054103 22.32189536 17.76072994 24.65515344 18 27 C17.01 27 16.02 27 15 27 C14.67 25.02 14.34 23.04 14 21 C13.01 21 12.02 21 11 21 C11.0825 19.948125 11.165 18.89625 11.25 17.8125 C10.96197608 13.4201352 9.897453 12.16908922 7 9 C7 8.34 7 7.68 7 7 C5.68 6.67 4.36 6.34 3 6 C3 5.34 3 4.68 3 4 C2.01 3.67 1.02 3.34 0 3 C0 2.01 0 1.02 0 0 Z " fill="#354390" transform="translate(127,61)"/>
<path d="M0 0 C0.66 0 1.32 0 2 0 C1.979375 0.928125 1.95875 1.85625 1.9375 2.8125 C1.84230396 6.02286011 1.84230396 6.02286011 3 9 C4.65 9 6.3 9 8 9 C8 9.99 8 10.98 8 12 C4.37 12.33 0.74 12.66 -3 13 C-3 12.01 -3 11.02 -3 10 C-3.20625 9.154375 -3.4125 8.30875 -3.625 7.4375 C-3.74875 6.633125 -3.8725 5.82875 -4 5 C-3.34 4.34 -2.68 3.68 -2 3 C-1.34 2.01 -0.68 1.02 0 0 Z " fill="#394FBC" transform="translate(92,90)"/>
<path d="M0 0 C2 2 2 2 2.1953125 5.4765625 C2.18201493 6.85950968 2.15816232 8.24238654 2.125 9.625 C2.11597656 10.33140625 2.10695313 11.0378125 2.09765625 11.765625 C2.07407603 13.51056098 2.03820461 15.25532295 2 17 C0.35 17 -1.3 17 -3 17 C-4.49575348 12.64871715 -3.50324475 10.00999346 -1.7890625 5.96484375 C-0.99840145 3.99601946 -0.46944597 2.06648273 0 0 Z " fill="#0A053B" transform="translate(96,40)"/>
<path d="M0 0 C0.66 0 1.32 0 2 0 C1.21771365 4.08874996 -0.60429795 7.73581824 -2.3125 11.5 C-5.31116602 18.20987109 -7.85441798 24.96355709 -10 32 C-10.33 32 -10.66 32 -11 32 C-10.20850039 20.20938516 -4.9917267 10.50314001 0 0 Z " fill="#2E3F99" transform="translate(125,90)"/>
<path d="M0 0 C2.58472814 1.29236407 2.68886874 2.28932592 3.75 4.9375 C6.31353188 10.95119885 9.33931271 17.33931271 14 22 C17 26.61538462 17 26.61538462 17 29 C16.34 29 15.68 29 15 29 C14.01399162 27.60598815 13.03929687 26.20234374 12.12890625 24.7578125 C11.03719287 23.05791277 9.83207453 21.43252107 8.625 19.8125 C4.70842756 14.36335573 0.03507178 7.74318824 -1 1 C-0.67 0.67 -0.34 0.34 0 0 Z " fill="#2F3F91" transform="translate(108,60)"/>
<path d="M0 0 C3.90593434 1.30197811 4.41410218 2.88935496 6.5 6.375 C8.80024793 10.28015326 8.80024793 10.28015326 11.73828125 13.68359375 C12.15464844 14.11800781 12.57101563 14.55242187 13 15 C12.6875 17.6875 12.6875 17.6875 12 20 C11.34 20 10.68 20 10 20 C9.34 22.31 8.68 24.62 8 27 C7.34 26.67 6.68 26.34 6 26 C6.309375 25.113125 6.61875 24.22625 6.9375 23.3125 C8.03899395 19.87843062 9 16.6210847 9 13 C8.34 13 7.68 13 7 13 C6.20724852 11.5839401 5.41584688 10.16712447 4.625 8.75 C3.96371094 7.56664063 3.96371094 7.56664063 3.2890625 6.359375 C2.14252177 4.26085803 1.05350448 2.1463923 0 0 Z " fill="#2D3D9D" transform="translate(119,75)"/>
<path d="M0 0 C1.98 0 3.96 0 6 0 C6 4.62 6 9.24 6 14 C3 11 3 11 2.8125 8.3125 C2.874375 7.549375 2.93625 6.78625 3 6 C1.02 6.33 -0.96 6.66 -3 7 C-1.125 1.125 -1.125 1.125 0 0 Z " fill="#364AB4" transform="translate(91,58)"/>
<path d="M0 0 C0.99 0.33 1.98 0.66 3 1 C3.94921875 2.9609375 3.94921875 2.9609375 4.6875 5.375 C4.93886719 6.16648437 5.19023438 6.95796875 5.44921875 7.7734375 C6 10 6 10 6 13 C4.02 13 2.04 13 0 13 C-0.19551338 11.39679026 -0.38111983 9.79237014 -0.5625 8.1875 C-0.71912109 6.84751953 -0.71912109 6.84751953 -0.87890625 5.48046875 C-1 3 -1 3 0 0 Z " fill="#0B0A3E" transform="translate(100,44)"/>
<path d="M0 0 C0.66 0.33 1.32 0.66 2 1 C2.34375 2.92578125 2.34375 2.92578125 2.5 5.3125 C2.72437865 8.70622701 3.31526681 11.03133709 5 14 C3.906875 13.814375 2.81375 13.62875 1.6875 13.4375 C-1.93624133 12.7421932 -1.93624133 12.7421932 -5 14 C-5 13.01 -5 12.02 -5 11 C-4.34 11 -3.68 11 -3 11 C-2.95101562 10.28972656 -2.90203125 9.57945313 -2.8515625 8.84765625 C-2.77679688 7.92855469 -2.70203125 7.00945312 -2.625 6.0625 C-2.55539063 5.14597656 -2.48578125 4.22945313 -2.4140625 3.28515625 C-2.27742188 2.53105469 -2.14078125 1.77695313 -2 1 C-1.34 0.67 -0.68 0.34 0 0 Z " fill="#324894" transform="translate(99,76)"/>
<path d="M0 0 C0.33 0 0.66 0 1 0 C1.19441368 2.2910905 1.38033135 4.58290337 1.5625 6.875 C1.66691406 8.15117187 1.77132812 9.42734375 1.87890625 10.7421875 C2 14 2 14 1 16 C-11.87 15.505 -11.87 15.505 -25 15 C-25 14.67 -25 14.34 -25 14 C-17.41 14 -9.82 14 -2 14 C-1.34 9.38 -0.68 4.76 0 0 Z " fill="#3C498E" transform="translate(82,148)"/>
<path d="M0 0 C0.33 0.66 0.66 1.32 1 2 C-0.34355325 4.53848335 -1.73431635 6.94253506 -3.25 9.375 C-3.65863281 10.04789063 -4.06726563 10.72078125 -4.48828125 11.4140625 C-8.84003439 18.52239239 -8.84003439 18.52239239 -11 21 C-11.66 21 -12.32 21 -13 21 C-12.34 19.35 -11.68 17.7 -11 16 C-10.34 16 -9.68 16 -9 16 C-8.814375 15.21625 -8.62875 14.4325 -8.4375 13.625 C-6.4134714 8.52092787 -3.24945024 4.39631503 0 0 Z " fill="#2E3C8F" transform="translate(81,69)"/>
<path d="M0 0 C0.66 0 1.32 0 2 0 C0.86301143 4.4604936 -0.33189076 8.22017858 -3 12 C-3.99 12.495 -3.99 12.495 -5 13 C-5.66 13.99 -6.32 14.98 -7 16 C-6.67698799 9.86277186 -3.6043679 4.83769272 0 0 Z " fill="#2C44A1" transform="translate(87,66)"/>
<path d="M0 0 C0.66 0.33 1.32 0.66 2 1 C1.67 2.98 1.34 4.96 1 7 C-4.61 6.67 -10.22 6.34 -16 6 C-12.36804504 3.57869669 -10.61650652 3.78977215 -6.3125 3.875 C-5.13300781 3.89304687 -3.95351562 3.91109375 -2.73828125 3.9296875 C-1.38283203 3.96449219 -1.38283203 3.96449219 0 4 C0 2.68 0 1.36 0 0 Z " fill="#394690" transform="translate(113,121)"/>
<path d="M0 0 C0.66 0 1.32 0 2 0 C3.33951026 7.42819325 3.33951026 7.42819325 1.8125 10 C0 11 0 11 -4 11 C-3.71125 10.484375 -3.4225 9.96875 -3.125 9.4375 C-1.71219973 6.37643275 -0.8751483 3.25055082 0 0 Z " fill="#3348BF" transform="translate(105,90)"/>
<path d="M0 0 C8.28679245 0.67924528 8.28679245 0.67924528 12 3 C12 3.66 12 4.32 12 5 C11.07767578 4.85691406 11.07767578 4.85691406 10.13671875 4.7109375 C8.92435547 4.54464844 8.92435547 4.54464844 7.6875 4.375 C6.88699219 4.25898437 6.08648437 4.14296875 5.26171875 4.0234375 C2.71276785 3.78466593 2.71276785 3.78466593 0 6 C-0.38218767 4.34385343 -0.71395102 2.67542976 -1 1 C-0.67 0.67 -0.34 0.34 0 0 Z " fill="#3648B2" transform="translate(114,58)"/>
<path d="M0 0 C0.66 0 1.32 0 2 0 C2 0.99 2 1.98 2 3 C2.99 3 3.98 3 5 3 C5 6.63 5 10.26 5 14 C4.01 13.67 3.02 13.34 2 13 C1.34 8.71 0.68 4.42 0 0 Z " fill="#4250AA" transform="translate(140,85)"/>
<path d="M0 0 C3.04408304 3.56687122 5.21082201 7.09510916 7.25 11.3125 C7.77078125 12.38113281 8.2915625 13.44976562 8.828125 14.55078125 C9.21484375 15.35902344 9.6015625 16.16726562 10 17 C9.01 17 8.02 17 7 17 C6.16180842 15.37750059 5.3295884 13.75191503 4.5 12.125 C4.0359375 11.22007813 3.571875 10.31515625 3.09375 9.3828125 C2 7 2 7 2 5 C1.34 5 0.68 5 0 5 C0 3.35 0 1.7 0 0 Z " fill="#303C8B" transform="translate(68,91)"/>
<path d="M0 0 C0.66 0 1.32 0 2 0 C0.41078475 5.36095277 -1.18972938 10.70843973 -3 16 C-3.66 15.67 -4.32 15.34 -5 15 C-4.68950274 13.56206608 -4.3765224 12.1246682 -4.0625 10.6875 C-3.88847656 9.88699219 -3.71445313 9.08648437 -3.53515625 8.26171875 C-3 6 -3 6 -2 3 C-1.34 3 -0.68 3 0 3 C0 2.01 0 1.02 0 0 Z " fill="#233488" transform="translate(124,101)"/>
<path d="M0 0 C0.66 0 1.32 0 2 0 C1.979375 0.928125 1.95875 1.85625 1.9375 2.8125 C1.84230396 6.02286011 1.84230396 6.02286011 3 9 C3.99 9.33 4.98 9.66 6 10 C4.68 10 3.36 10 2 10 C-0.25 7 -0.25 7 -2 4 C-1.34 2.68 -0.68 1.36 0 0 Z " fill="#2F3CA1" transform="translate(92,90)"/>
<path d="M0 0 C0.8125 1.625 0.8125 1.625 1 4 C-0.61594832 6.04119788 -2.2856382 8.04072937 -4 10 C-4.85279338 12.21735439 -4.85279338 12.21735439 -5 14 C-5.66 14 -6.32 14 -7 14 C-6.44271087 10.65626525 -5.64826111 7.96687001 -4 5 C-3.34 5 -2.68 5 -2 5 C-1.34 3.35 -0.68 1.7 0 0 Z " fill="#2A397E" transform="translate(79,79)"/>
<path d="M0 0 C0.66 0.99 1.32 1.98 2 3 C2.99 3.33 3.98 3.66 5 4 C5.33 6.31 5.66 8.62 6 11 C5.01 11 4.02 11 3 11 C2.67 9.02 2.34 7.04 2 5 C1.01 5 0.02 5 -1 5 C-0.67 3.35 -0.34 1.7 0 0 Z " fill="#3045A6" transform="translate(139,77)"/>
<path d="M0 0 C2.8326134 1.4163067 3.01707833 3.14497293 4.125 6.0625 C4.47820312 6.98160156 4.83140625 7.90070313 5.1953125 8.84765625 C5.46085937 9.55792969 5.72640625 10.26820312 6 11 C5.01 11.495 5.01 11.495 4 12 C3.13353333 10.56988027 2.28218171 9.13059381 1.4375 7.6875 C0.72400391 6.48673828 0.72400391 6.48673828 -0.00390625 5.26171875 C-1 3 -1 3 0 0 Z " fill="#273288" transform="translate(108,60)"/>
<path d="M0 0 C-0.57634139 4.75481646 -2.55068521 7.97048212 -5 12 C-6 9 -6 9 -4.5625 5.8125 C-4.046875 4.884375 -3.53125 3.95625 -3 3 C-3.66 2.34 -4.32 1.68 -5 1 C-2 0 -2 0 0 0 Z " fill="#2E3A8B" transform="translate(88,57)"/>
<path d="M0 0 C1.37562854 1.28965176 2.70766393 2.62689293 4 4 C4 4.66 4 5.32 4 6 C4.99 5.67 5.98 5.34 7 5 C6.34 7.31 5.68 9.62 5 12 C4.34 11.67 3.68 11.34 3 11 C2.63729412 9.00511766 2.30830925 7.00401011 2 5 C1.37774395 3.31624835 0.72455635 1.64232772 0 0 Z " fill="#3347B8" transform="translate(119,83)"/>
<path d="M0 0 C0.33 0 0.66 0 1 0 C1.33 3.63 1.66 7.26 2 11 C0.35 11.66 -1.3 12.32 -3 13 C-3 12.01 -3 11.02 -3 10 C-2.34 10 -1.68 10 -1 10 C-0.67 6.7 -0.34 3.4 0 0 Z " fill="#3443A3" transform="translate(97,77)"/>
<path d="M0 0 C2 1 2 1 2.8515625 3.06640625 C3.10679688 3.89011719 3.36203125 4.71382813 3.625 5.5625 C3.88539062 6.38878906 4.14578125 7.21507813 4.4140625 8.06640625 C4.60742188 8.70449219 4.80078125 9.34257813 5 10 C4.01 10.495 4.01 10.495 3 11 C-1.06153846 4.6 -1.06153846 4.6 -0.75 1.5625 C-0.5025 1.046875 -0.255 0.53125 0 0 Z " fill="#2F3CA3" transform="translate(115,64)"/>
<path d="M0 0 C2 2 2 2 2.125 5.125 C2.08375 6.07375 2.0425 7.0225 2 8 C0.68 8 -0.64 8 -2 8 C-1.34 5.36 -0.68 2.72 0 0 Z " fill="#0B092D" transform="translate(96,40)"/>
<path d="M0 0 C0.66 0 1.32 0 2 0 C2.66 2.64 3.32 5.28 4 8 C3.01 8 2.02 8 1 8 C-1 5 -1 5 -0.625 2.3125 C-0.41875 1.549375 -0.2125 0.78625 0 0 Z " fill="#282443" transform="translate(98,37)"/>
<path d="M0 0 C0.66 0 1.32 0 2 0 C1.21681311 3.91593446 -0.39179858 7.36406635 -2 11 C-2.33 11 -2.66 11 -3 11 C-3.39253254 6.55129785 -2.15305957 3.85756507 0 0 Z " fill="#2E3B82" transform="translate(125,90)"/>
<path d="M0 0 C1.48206495 0.254496 2.96068615 0.52911762 4.4375 0.8125 C5.67306641 1.03873047 5.67306641 1.03873047 6.93359375 1.26953125 C7.61550781 1.51058594 8.29742187 1.75164063 9 2 C9.33 2.99 9.66 3.98 10 5 C8.948125 4.5359375 8.948125 4.5359375 7.875 4.0625 C4.91063343 2.96697322 2.12301892 2.43577008 -1 2 C-0.67 1.34 -0.34 0.68 0 0 Z " fill="#2E3E96" transform="translate(116,58)"/>
<path d="M0 0 C0.99 0 1.98 0 3 0 C2.34 3.63 1.68 7.26 1 11 C0.67 11 0.34 11 0 11 C0 7.37 0 3.74 0 0 Z " fill="#2C3AC4" transform="translate(96,72)"/>
<path d="M0 0 C1.32 0 2.64 0 4 0 C4 1.32 4 2.64 4 4 C3.34 4 2.68 4 2 4 C1.67 4.66 1.34 5.32 1 6 C0 5 0 5 -0.0625 2.4375 C-0.041875 1.633125 -0.02125 0.82875 0 0 Z " fill="#283C9C" transform="translate(97,58)"/>
<path d="M0 0 C0.66 0 1.32 0 2 0 C2.36625971 4.51720311 2.36625971 4.51720311 0.625 6.8125 C-1 8 -1 8 -3 8 C-2.5359375 7.13375 -2.5359375 7.13375 -2.0625 6.25 C-1.07416636 4.15705816 -0.4831387 2.25464725 0 0 Z " fill="#2F4599" transform="translate(104,93)"/>
<path d="M0 0 C2.475 0.495 2.475 0.495 5 1 C5 2.98 5 4.96 5 7 C3.29115995 5.37660195 1.62553283 3.70680947 0 2 C0 1.34 0 0.68 0 0 Z " fill="#314CB6" transform="translate(119,72)"/>
<path d="M0 0 C0.33 0 0.66 0 1 0 C1.17942163 3.94727588 1.09350689 6.5980513 -1 10 C-1.66 9.67 -2.32 9.34 -3 9 C-2.01 6.03 -1.02 3.06 0 0 Z " fill="#34418B" transform="translate(119,116)"/>
<path d="M0 0 C1.485 0.99 1.485 0.99 3 2 C2.67 3.98 2.34 5.96 2 8 C1.34 8 0.68 8 0 8 C-0.79953138 4.71303767 -1.09658936 3.28976808 0 0 Z " fill="#07072F" transform="translate(100,44)"/>
<path d="" fill="#008080" transform="translate(0,0)"/>
<path d="" fill="#000000" transform="translate(0,0)"/>
<path d="" fill="#000000" transform="translate(0,0)"/>
</svg>
